<mxfile host="Electron" agent="Mozilla/5.0 (Windows NT 10.0; Win64; x64) AppleWebKit/537.36 (KHTML, like Gecko) draw.io/26.2.2 Chrome/134.0.6998.178 Electron/35.1.2 Safari/537.36" version="26.2.2">
  <diagram name="Page-1" id="QmSCu3KC_JpULPYJjFtF">
    <mxGraphModel dx="985" dy="580" grid="1" gridSize="10" guides="1" tooltips="1" connect="1" arrows="1" fold="1" page="1" pageScale="1" pageWidth="1169" pageHeight="827" math="0" shadow="0">
      <root>
        <mxCell id="0" />
        <mxCell id="1" parent="0" />
        <mxCell id="FvIDWgbvENPM9K7YVrTW-2" value="" style="ellipse;whiteSpace=wrap;html=1;fillColor=#B9E0A5;strokeColor=#000000;strokeWidth=3;" parent="1" vertex="1">
          <mxGeometry x="40" y="360" width="160" height="80" as="geometry" />
        </mxCell>
        <mxCell id="FvIDWgbvENPM9K7YVrTW-4" value="&lt;font style=&quot;font-size: 19px;&quot;&gt;&lt;b style=&quot;&quot;&gt;vstupy&lt;/b&gt;&lt;/font&gt;" style="text;html=1;align=center;verticalAlign=middle;whiteSpace=wrap;rounded=0;" parent="1" vertex="1">
          <mxGeometry x="80" y="380" width="80" height="40" as="geometry" />
        </mxCell>
        <mxCell id="FvIDWgbvENPM9K7YVrTW-5" value="" style="rounded=0;whiteSpace=wrap;html=1;fillColor=#ffe6cc;strokeColor=#000000;strokeWidth=3;" parent="1" vertex="1">
          <mxGeometry x="280" y="340" width="120" height="120" as="geometry" />
        </mxCell>
        <mxCell id="FvIDWgbvENPM9K7YVrTW-6" value="&lt;span style=&quot;font-size: 19px;&quot;&gt;&lt;b&gt;vstupní&lt;/b&gt;&lt;/span&gt;&lt;div&gt;&lt;span style=&quot;font-size: 19px;&quot;&gt;&lt;b&gt;kanál&lt;/b&gt;&lt;/span&gt;&lt;/div&gt;" style="text;html=1;align=center;verticalAlign=middle;whiteSpace=wrap;rounded=0;" parent="1" vertex="1">
          <mxGeometry x="290" y="375" width="100" height="50" as="geometry" />
        </mxCell>
        <mxCell id="nN1OGpEtDdVY6088qnmE-1" value="" style="edgeStyle=orthogonalEdgeStyle;rounded=0;orthogonalLoop=1;jettySize=auto;html=1;" edge="1" parent="1" source="FvIDWgbvENPM9K7YVrTW-7" target="FvIDWgbvENPM9K7YVrTW-11">
          <mxGeometry relative="1" as="geometry" />
        </mxCell>
        <mxCell id="FvIDWgbvENPM9K7YVrTW-7" value="" style="rounded=0;whiteSpace=wrap;html=1;fillColor=#fff2cc;strokeColor=#000000;strokeWidth=3;" parent="1" vertex="1">
          <mxGeometry x="510" y="340" width="140" height="120" as="geometry" />
        </mxCell>
        <mxCell id="FvIDWgbvENPM9K7YVrTW-8" value="&lt;div&gt;&lt;font style=&quot;font-size: 19px;&quot;&gt;&lt;b style=&quot;&quot;&gt;procesorové&lt;/b&gt;&lt;/font&gt;&lt;/div&gt;&lt;font style=&quot;font-size: 19px;&quot;&gt;&lt;b style=&quot;&quot;&gt;jádro&lt;/b&gt;&lt;/font&gt;" style="text;html=1;align=center;verticalAlign=middle;whiteSpace=wrap;rounded=0;" parent="1" vertex="1">
          <mxGeometry x="530" y="375" width="100" height="50" as="geometry" />
        </mxCell>
        <mxCell id="FvIDWgbvENPM9K7YVrTW-9" value="" style="endArrow=classic;html=1;rounded=0;entryX=0;entryY=0.5;entryDx=0;entryDy=0;strokeWidth=2;" parent="1" target="FvIDWgbvENPM9K7YVrTW-5" edge="1">
          <mxGeometry width="50" height="50" relative="1" as="geometry">
            <mxPoint x="200" y="400" as="sourcePoint" />
            <mxPoint x="250" y="350" as="targetPoint" />
          </mxGeometry>
        </mxCell>
        <mxCell id="FvIDWgbvENPM9K7YVrTW-10" value="" style="endArrow=classic;html=1;rounded=0;entryX=0;entryY=0.5;entryDx=0;entryDy=0;strokeWidth=2;" parent="1" target="FvIDWgbvENPM9K7YVrTW-7" edge="1">
          <mxGeometry width="50" height="50" relative="1" as="geometry">
            <mxPoint x="400" y="399.66" as="sourcePoint" />
            <mxPoint x="480" y="399.66" as="targetPoint" />
          </mxGeometry>
        </mxCell>
        <mxCell id="FvIDWgbvENPM9K7YVrTW-11" value="" style="rounded=0;whiteSpace=wrap;html=1;fillColor=#ffe6cc;strokeColor=#000000;strokeWidth=3;" parent="1" vertex="1">
          <mxGeometry x="760" y="340" width="120" height="120" as="geometry" />
        </mxCell>
        <mxCell id="FvIDWgbvENPM9K7YVrTW-12" value="&lt;font style=&quot;font-size: 19px;&quot;&gt;&lt;b style=&quot;&quot;&gt;uložiště&lt;/b&gt;&lt;/font&gt;" style="text;html=1;align=center;verticalAlign=middle;whiteSpace=wrap;rounded=0;" parent="1" vertex="1">
          <mxGeometry x="770" y="375" width="100" height="50" as="geometry" />
        </mxCell>
        <mxCell id="FvIDWgbvENPM9K7YVrTW-13" value="" style="endArrow=classic;html=1;rounded=0;entryX=0;entryY=0.5;entryDx=0;entryDy=0;strokeWidth=2;" parent="1" edge="1">
          <mxGeometry width="50" height="50" relative="1" as="geometry">
            <mxPoint x="650" y="400" as="sourcePoint" />
            <mxPoint x="760" y="400.1" as="targetPoint" />
          </mxGeometry>
        </mxCell>
        <mxCell id="FvIDWgbvENPM9K7YVrTW-14" value="&lt;b&gt;&lt;font style=&quot;font-size: 18px;&quot;&gt;příjem&lt;/font&gt;&lt;/b&gt;" style="text;html=1;align=center;verticalAlign=middle;whiteSpace=wrap;rounded=0;" parent="1" vertex="1">
          <mxGeometry x="300" y="240" width="80" height="40" as="geometry" />
        </mxCell>
        <mxCell id="FvIDWgbvENPM9K7YVrTW-15" value="&lt;b&gt;&lt;font style=&quot;font-size: 18px;&quot;&gt;zpracování&lt;/font&gt;&lt;/b&gt;" style="text;html=1;align=center;verticalAlign=middle;whiteSpace=wrap;rounded=0;" parent="1" vertex="1">
          <mxGeometry x="520" y="240" width="120" height="40" as="geometry" />
        </mxCell>
        <mxCell id="FvIDWgbvENPM9K7YVrTW-16" value="&lt;b&gt;&lt;font style=&quot;font-size: 18px;&quot;&gt;uložení&lt;/font&gt;&lt;/b&gt;" style="text;html=1;align=center;verticalAlign=middle;whiteSpace=wrap;rounded=0;" parent="1" vertex="1">
          <mxGeometry x="780" y="240" width="80" height="40" as="geometry" />
        </mxCell>
        <mxCell id="FvIDWgbvENPM9K7YVrTW-17" value="" style="ellipse;whiteSpace=wrap;html=1;fillColor=#B9E0A5;strokeColor=#000000;strokeWidth=3;" parent="1" vertex="1">
          <mxGeometry x="960" y="360" width="160" height="80" as="geometry" />
        </mxCell>
        <mxCell id="FvIDWgbvENPM9K7YVrTW-18" value="" style="endArrow=classic;html=1;rounded=0;strokeWidth=2;" parent="1" edge="1">
          <mxGeometry width="50" height="50" relative="1" as="geometry">
            <mxPoint x="880" y="399.58000000000004" as="sourcePoint" />
            <mxPoint x="960" y="400" as="targetPoint" />
          </mxGeometry>
        </mxCell>
        <mxCell id="FvIDWgbvENPM9K7YVrTW-25" value="&lt;font style=&quot;font-size: 19px;&quot;&gt;&lt;b style=&quot;&quot;&gt;výstupy&lt;/b&gt;&lt;/font&gt;" style="text;html=1;align=center;verticalAlign=middle;whiteSpace=wrap;rounded=0;" parent="1" vertex="1">
          <mxGeometry x="1000" y="380" width="80" height="40" as="geometry" />
        </mxCell>
        <mxCell id="FvIDWgbvENPM9K7YVrTW-26" value="" style="endArrow=none;dashed=1;html=1;dashPattern=1 3;strokeWidth=3;rounded=0;" parent="1" edge="1">
          <mxGeometry width="50" height="50" relative="1" as="geometry">
            <mxPoint x="240" y="200" as="sourcePoint" />
            <mxPoint x="240" y="610" as="targetPoint" />
          </mxGeometry>
        </mxCell>
        <mxCell id="zblnI3KwxF1kuTUBJulH-1" value="" style="endArrow=none;dashed=1;html=1;dashPattern=1 3;strokeWidth=3;rounded=0;" parent="1" edge="1">
          <mxGeometry width="50" height="50" relative="1" as="geometry">
            <mxPoint x="460" y="200" as="sourcePoint" />
            <mxPoint x="460" y="610" as="targetPoint" />
          </mxGeometry>
        </mxCell>
        <mxCell id="zblnI3KwxF1kuTUBJulH-2" value="" style="endArrow=none;dashed=1;html=1;dashPattern=1 3;strokeWidth=3;rounded=0;jumpSize=6;" parent="1" edge="1">
          <mxGeometry width="50" height="50" relative="1" as="geometry">
            <mxPoint x="700" y="200" as="sourcePoint" />
            <mxPoint x="700" y="610" as="targetPoint" />
          </mxGeometry>
        </mxCell>
        <mxCell id="zblnI3KwxF1kuTUBJulH-3" value="" style="endArrow=none;dashed=1;html=1;dashPattern=1 3;strokeWidth=3;rounded=0;" parent="1" edge="1">
          <mxGeometry width="50" height="50" relative="1" as="geometry">
            <mxPoint x="920" y="200" as="sourcePoint" />
            <mxPoint x="920" y="610" as="targetPoint" />
          </mxGeometry>
        </mxCell>
      </root>
    </mxGraphModel>
  </diagram>
</mxfile>
